<svg width="30" height="30" viewBox="0 0 30 30" fill="none" xmlns="http://www.w3.org/2000/svg">
<path d="M9.1771 12.6056L15.0037 6.78145L20.8326 12.6104L24.2209 9.21965L15.0037 0L5.78638 9.21728L9.1771 12.6056Z" fill="#F3BA2F"/>
<path d="M0 15.0012L3.38836 11.6105L6.77909 15.0012L3.38836 18.3896L0 15.0012Z" fill="#F3BA2F"/>
<path d="M9.1771 17.3943L15.0037 23.2209L20.8326 17.392L24.2233 20.778L15.006 29.9976L5.78638 20.7851L9.1771 17.3943Z" fill="#F3BA2F"/>
<path d="M23.2209 15.0012L26.6093 11.6105L30 14.9988L26.6093 18.3919L23.2209 15.0012Z" fill="#F3BA2F"/>
<path d="M18.4417 14.9988L15.0035 11.5583L12.4611 14.1008L12.1673 14.3922L11.5654 14.9941L15.0035 18.4298L18.4417 15.0012V14.9988Z" fill="#F3BA2F"/>
</svg>
