<svg width="24" height="24" viewBox="0 0 24 24" fill="none" xmlns="http://www.w3.org/2000/svg">
<path d="M20.979 17.9088C19.0555 20.9646 15.6944 22.9915 11.868 22.9999C5.93998 23.013 1.07249 18.1292 1.00081 12.092C0.933394 6.4114 5.07718 1.70215 10.4522 1.00116C10.567 0.986162 10.6419 1.12001 10.5721 1.21411C9.27606 2.96126 8.50773 5.13656 8.50773 7.49515C8.50773 13.2557 13.0926 17.9253 18.7485 17.9253C19.4658 17.9253 20.1656 17.8504 20.8413 17.7072C20.9547 17.6832 21.0415 17.8095 20.979 17.9088Z" fill="#F8D377"/>
<path d="M15.9575 5.66429L15.081 6.56095L15.288 7.82737C15.297 7.88275 15.2753 7.93872 15.232 7.97179C15.2075 7.99055 15.1784 8 15.1492 8C15.1269 8 15.1043 7.99439 15.0838 7.98302L14 7.3851L12.9163 7.98287C12.8691 8.00916 12.8115 8.00487 12.7682 7.97165C12.7248 7.93857 12.7032 7.8826 12.7122 7.82722L12.9192 6.5608L12.0425 5.66429C12.0042 5.62501 11.9903 5.56624 12.0069 5.51293C12.0235 5.45962 12.0676 5.42048 12.1206 5.41236L13.332 5.22777L13.8738 4.07564C13.9212 3.97479 14.0788 3.97479 14.1262 4.07564L14.668 5.22777L15.8794 5.41236C15.9324 5.42048 15.9765 5.45947 15.9931 5.51293C16.0097 5.56638 15.9958 5.62486 15.9575 5.66429Z" fill="#F8D377"/>
<path d="M21.9469 11.0804L20.8512 12.2012L21.11 13.7842C21.1212 13.8534 21.0941 13.9234 21.04 13.9647C21.0094 13.9882 20.9729 14 20.9365 14C20.9086 14 20.8804 13.993 20.8547 13.9788L19.5 13.2314L18.1454 13.9786C18.0863 14.0114 18.0144 14.0061 17.9602 13.9646C17.906 13.9232 17.879 13.8533 17.8902 13.784L18.149 12.201L17.0531 11.0804C17.0053 11.0313 16.9879 10.9578 17.0086 10.8912C17.0294 10.8245 17.0844 10.7756 17.1508 10.7655L18.665 10.5347L19.3422 9.09456C19.4015 8.96848 19.5985 8.96848 19.6578 9.09456L20.335 10.5347L21.8492 10.7655C21.9156 10.7756 21.9706 10.8243 21.9914 10.8912C22.0121 10.958 21.9947 11.0311 21.9469 11.0804Z" fill="#F4B53F"/>
<path d="M20.8414 17.7071C20.9546 17.6831 21.0413 17.809 20.9789 17.9082C19.0515 20.9707 15.6805 23 11.844 23C5.8547 23 1 18.055 1 11.9554C1 9.51447 1.77728 7.2587 3.09402 5.43021C2.79507 6.42901 2.63159 7.48789 2.62505 8.58493C2.58848 14.7308 7.43491 19.6982 13.4693 19.6979C15.656 19.6978 17.6914 19.0387 19.3941 17.9044C19.887 17.8735 20.3701 17.8069 20.8414 17.7071Z" fill="#F4B53F"/>
</svg>
