<svg width="14" height="14" viewBox="0 0 14 14" fill="none" xmlns="http://www.w3.org/2000/svg">
<path fill-rule="evenodd" clip-rule="evenodd" d="M3 0C1.34315 0 0 1.34315 0 3V11C0 12.6569 1.34315 14 3 14H11C12.6569 14 14 12.6569 14 11V3C14 1.34315 12.6569 0 11 0H3ZM11.1187 5.28537C11.4604 4.94366 11.4604 4.38964 11.1187 4.04793C10.777 3.70622 10.223 3.70622 9.88128 4.04793L5.83333 8.09588L4.11872 6.38126C3.77701 6.03956 3.22299 6.03956 2.88128 6.38126C2.53957 6.72297 2.53957 7.27699 2.88128 7.6187L5.21461 9.95203C5.55632 10.2937 6.11034 10.2937 6.45205 9.95203L11.1187 5.28537Z" fill="#FFB200"/>
</svg>
