<svg xmlns="http://www.w3.org/2000/svg" width="115" height="24" viewBox="0 0 115 24">
    <g fill="none" fill-rule="evenodd">
        <g fill="#FFF">
            <g>
                <path d="M31.307 6.963c2.594 0 4.495.445 5.703 1.335 1.206.891 1.809 2.395 1.809 4.513V16.8H28.195v1.486c0 .948.339 1.624 1.016 2.03.676.405 1.894.607 3.654.607 1.624 0 3.45-.236 5.48-.71v3.145c-2.007.428-4.15.642-6.428.642-5.797 0-8.695-1.769-8.695-5.308v-5.88c0-2.052.66-3.539 1.978-4.463 1.32-.924 3.355-1.386 6.107-1.386zm56.04 0c1.038 0 1.866.028 2.487.085.62.056 1.303.198 2.047.422.813.25 1.472.586 1.98 1.014.507.43.94 1.037 1.303 1.825.337.812.506 1.781.506 2.908v4.833c0 1.015-.164 1.905-.49 2.671-.328.766-.75 1.363-1.27 1.79-.45.385-1.065.694-1.843.93-.777.237-1.539.39-2.284.457-.677.068-1.488.102-2.436.102-1.015 0-1.85-.034-2.503-.102-.656-.067-1.353-.202-2.098-.406-.812-.224-1.467-.546-1.962-.962-.497-.417-.914-1.008-1.253-1.776-.337-.743-.506-1.644-.506-2.704v-4.833c0-1.081.169-2.029.506-2.84.339-.81.78-1.442 1.32-1.893.474-.383 1.1-.703 1.878-.963.778-.258 1.54-.422 2.284-.49.857-.045 1.634-.069 2.334-.069zM46.64 7.3l3.214 4.698 3.248-4.698h5.717l-6.123 7.977 6.462 8.384H53.44l-3.587-5.139-3.553 5.139h-5.717l6.427-8.384-6.089-7.977h5.718zm19.68 0v16.36h-4.94V7.302h4.94zm42.996-.338c2.098 0 3.57.378 4.415 1.133.847.755 1.27 1.943 1.27 3.567v11.999h-4.94V12.303c0-.63-.064-1.103-.186-1.419-.125-.315-.373-.54-.745-.675-.372-.136-.942-.204-1.708-.204-.971 0-1.681.063-2.131.186-.452.125-.758.344-.915.66-.158.315-.236.799-.236 1.452v11.359H99.2V7.3h4.872v1.994c.383-1.554 2.131-2.332 5.244-2.332zM75.495 0v23.662h-4.94V3.989L75.495 0zM9.338 1.723c2.572 0 4.602.199 6.09.592 1.489.395 2.584 1.077 3.283 2.045.698.97 1.049 2.311 1.049 4.023v8.924c0 1.667-.328 2.957-.982 3.87-.654.913-1.725 1.555-3.214 1.926-1.488.373-3.552.559-6.191.559H0v-9.887l5.278-4.262V19.91h3.858c1.442 0 2.532-.063 3.264-.186.734-.124 1.264-.366 1.59-.726.328-.36.492-.925.492-1.69V8.281c0-1.036-.412-1.764-1.235-2.18-.823-.417-2.138-.626-3.942-.626H0V1.723zm78.009 8.282c-1.308 0-2.199.182-2.673.542-.473.36-.71.992-.71 1.893v6.185c0 .61.095 1.071.288 1.386.191.315.524.546.998.693.473.146 1.172.22 2.097.22s1.624-.074 2.098-.22c.473-.147.806-.378.998-.693.191-.315.288-.777.288-1.386V12.44c0-.901-.237-1.533-.71-1.893-.474-.36-1.365-.542-2.674-.542zm-56.107 0c-1.195 0-1.996.136-2.403.406-.427.293-.642.699-.642 1.217v2.366h5.92v-2.366c0-.54-.218-.946-.659-1.217-.439-.27-1.178-.406-2.216-.406zm35.08-8.62l-4.94 3.99v-3.99h4.94z" transform="translate(-30.000000, -28.000000) translate(29.999994, 27.999965)"/>
            </g>
        </g>
    </g>
</svg>
