<svg width="24" height="24" viewBox="0 0 24 24" fill="none" xmlns="http://www.w3.org/2000/svg">
<path fill-rule="evenodd" clip-rule="evenodd" d="M23 12C23 15.608 21.262 18.809 18.578 20.8165C16.7465 22.186 14.464 23 12 23C9.756 23 7.666 22.329 5.928 21.1685C3.8545 19.799 2.2705 17.7365 1.5115 15.3165C1.176 14.266 1 13.155 1 12C1 8.436 2.6995 5.2625 5.334 3.255C5.3835 3.211 5.433 3.1725 5.488 3.1395C7.314 1.792 9.5635 1 12 1C14.244 1 16.334 1.6765 18.0775 2.8315C20.151 4.2065 21.7295 6.269 22.494 8.689C22.824 9.734 23 10.845 23 12Z" fill="#FFD166"/>
<path fill-rule="evenodd" clip-rule="evenodd" d="M22.4942 8.68904L5.92822 21.1685C3.85472 19.799 2.27072 17.7365 1.51172 15.3165L18.0777 2.83154C20.1512 4.20654 21.7297 6.26904 22.4942 8.68904Z" fill="#FFC233"/>
<path fill-rule="evenodd" clip-rule="evenodd" d="M23.0002 12C23.0002 15.608 21.2622 18.809 18.5782 20.8165C16.7467 22.186 14.4642 23 12.0002 23C9.75622 23 7.66622 22.329 5.92822 21.1685L22.4942 8.68896C22.8242 9.73396 23.0002 10.845 23.0002 12Z" fill="#FFB200"/>
<path fill-rule="evenodd" clip-rule="evenodd" d="M15.3166 6.78023C14.5724 6.58346 13.5572 6.48438 12.2713 6.48438H6.6792V8.36053H10.2415H12.2549C13.1565 8.36053 13.8141 8.46509 14.2256 8.67349C14.6372 8.88189 14.8431 9.24563 14.8431 9.76346V14.2762C14.8431 14.6594 14.7611 14.9413 14.5973 15.1215C14.4342 15.3017 14.1692 15.4226 13.8023 15.4845C13.4361 15.5464 12.8915 15.5774 12.1702 15.5774H10.2415V10.379L7.60228 12.5101V17.4534H12.2886C13.6082 17.4534 14.64 17.3607 15.384 17.1743C16.129 16.9886 16.6644 16.6674 16.9914 16.2114C17.3182 15.7548 17.4822 15.1097 17.4822 14.2762V9.81442C17.4822 8.95824 17.3068 8.28771 16.9577 7.80285C16.6081 7.31869 16.0607 6.97753 15.3166 6.78023Z" fill="white"/>
</svg>
