<svg xmlns="http://www.w3.org/2000/svg" width="55" height="20" viewBox="0 0 55 20">
    <defs>
        <linearGradient id="a" x1="4.585%" x2="98.422%" y1="-93.667%" y2="163.208%">
            <stop offset="0%" stop-color="#0AA1F0"/>
            <stop offset="100%" stop-color="#1D6BD3"/>
        </linearGradient>
    </defs>
    <g fill="url(#a)" fill-rule="evenodd" transform="translate(-23 -35)">
        <path d="M23.629 35H27.4v19.486h-3.771zM41.857 35h3.771v19.486h-3.771zM78 35.314v3.771H48.457v-3.77zM69.2 42.857v3.771H48.457v-3.77zM60.086 50.714v3.771H48.772v-3.77z"/>
        <path d="M41.844 35h3.833l-.05 2.076a6379.092 6379.092 0 0 1-10.684 10.495v-5.86L41.844 35zM27.71 35h-4.081s.11 1.535.31 1.757c.2.223 11.004 10.814 11.004 10.814v-5.86L27.709 35z"/>
    </g>
</svg>
