<svg width="36" height="36" viewBox="0 0 36 36" fill="none" xmlns="http://www.w3.org/2000/svg">
<path d="M17.9993 1.5C8.88781 1.5 1.5 8.88781 1.5 17.9993C1.5 27.1108 8.88781 34.5 17.9993 34.5C27.1108 34.5 34.5 27.1108 34.5 17.9993C34.5 8.88781 27.1108 1.5 17.9993 1.5Z" fill="#E82127"/>
<path fill-rule="evenodd" clip-rule="evenodd" d="M26.4957 13.3068C23.494 11.993 20.5618 11.5753 18 11.595H17.9996C15.4378 11.5753 12.5051 11.993 9.50398 13.3068C9.14637 12.6559 9 12.2611 9 12.2611C12.2809 10.9574 15.3536 10.5112 17.9996 10.5C20.6458 10.5112 23.7187 10.9574 27 12.2611C27 12.2611 26.8969 12.5816 26.4957 13.3068ZM20.5193 14.277L18.0011 28.5L15.4626 14.2749C13.0785 14.2766 12.3223 14.5409 12.2124 15.6199C12.2124 15.6199 10.6016 15.017 9.79016 13.7924C12.9588 12.3177 16.1431 12.2511 16.1431 12.2511L17.9991 14.5215L19.855 12.2514C19.855 12.2514 23.0392 12.3179 26.2082 13.7927C25.3961 15.0173 23.786 15.6202 23.786 15.6202C23.6767 14.5413 22.9196 14.277 20.5193 14.277Z" fill="white"/>
</svg>
