<svg width="36" height="36" viewBox="0 0 36 36" fill="none" xmlns="http://www.w3.org/2000/svg">
<path d="M31.5059 4.36365L19.8 12.8893L21.9647 7.85926L31.5059 4.36365Z" fill="#E2761B"/>
<path d="M4.48236 4.36365L16.0941 12.97L14.0353 7.85926L4.48236 4.36365Z" fill="#E4761B"/>
<path d="M27.2941 24.1261L24.1765 28.81L30.847 30.6097L32.7647 24.2299L27.2941 24.1261Z" fill="#E4761B"/>
<path d="M3.24707 24.2299L5.15295 30.6097L11.8235 28.81L8.70589 24.1261L3.24707 24.2299Z" fill="#E4761B"/>
<path d="M11.4471 16.2118L9.58826 18.9691L16.2118 19.2575L15.9765 12.2778L11.4471 16.2118Z" fill="#E4761B"/>
<path d="M24.5412 16.2118L19.9529 12.197L19.8 19.2575L26.4118 18.9691L24.5412 16.2118Z" fill="#E4761B"/>
<path d="M11.8235 28.8099L15.8 26.9064L12.3647 24.276L11.8235 28.8099Z" fill="#E4761B"/>
<path d="M20.1882 26.9064L24.1765 28.8099L23.6235 24.276L20.1882 26.9064Z" fill="#E4761B"/>
<path d="M24.1765 28.8098L20.1882 26.9062L20.5059 29.4559L20.4706 30.5288L24.1765 28.8098Z" fill="#D7C1B3"/>
<path d="M11.8235 28.8098L15.5294 30.5288L15.5059 29.4559L15.8 26.9062L11.8235 28.8098Z" fill="#D7C1B3"/>
<path d="M15.5882 22.5916L12.2706 21.6341L14.6117 20.5842L15.5882 22.5916Z" fill="#233447"/>
<path d="M20.4 22.5916L21.3765 20.5842L23.7294 21.6341L20.4 22.5916Z" fill="#233447"/>
<path d="M11.8235 28.81L12.3882 24.1261L8.70587 24.2299L11.8235 28.81Z" fill="#CD6116"/>
<path d="M23.6118 24.1261L24.1765 28.81L27.2941 24.2299L23.6118 24.1261Z" fill="#CD6116"/>
<path d="M26.4118 18.9691L19.8 19.2575L20.4118 22.5916L21.3882 20.5843L23.7412 21.6341L26.4118 18.9691Z" fill="#CD6116"/>
<path d="M12.2706 21.6341L14.6236 20.5843L15.5883 22.5916L16.2118 19.2575L9.58826 18.9691L12.2706 21.6341Z" fill="#CD6116"/>
<path d="M9.58826 18.9691L12.3647 24.276L12.2706 21.6341L9.58826 18.9691Z" fill="#E4751F"/>
<path d="M23.7412 21.6341L23.6235 24.276L26.4118 18.9691L23.7412 21.6341Z" fill="#E4751F"/>
<path d="M16.2118 19.2574L15.5883 22.5915L16.3647 26.5256L16.5412 21.3456L16.2118 19.2574Z" fill="#E4751F" stroke="#E4751F" stroke-linecap="round" stroke-linejoin="round"/>
<path d="M19.8 19.2574L19.4824 21.334L19.6235 26.5256L20.4118 22.5915L19.8 19.2574Z" fill="#E4751F" stroke="#E4751F" stroke-linecap="round" stroke-linejoin="round"/>
<path d="M20.4118 22.5916L19.6235 26.5256L20.1882 26.9063L23.6235 24.2759L23.7412 21.634L20.4118 22.5916Z" fill="#F6851B"/>
<path d="M12.2706 21.634L12.3647 24.2759L15.8 26.9063L16.3647 26.5256L15.5882 22.5916L12.2706 21.634Z" fill="#F6851B"/>
<path d="M20.4706 30.5289L20.5059 29.456L20.2118 29.2022H15.7765L15.5059 29.456L15.5294 30.5289L11.8235 28.8099L13.1177 29.8482L15.7412 31.6364H20.2471L22.8824 29.8482L24.1765 28.8099L20.4706 30.5289Z" fill="#C0AD9E"/>
<path d="M20.1882 26.9065L19.6235 26.5258H16.3647L15.8 26.9065L15.5059 29.4561L15.7764 29.2023H20.2117L20.5059 29.4561L20.1882 26.9065Z" fill="#161616"/>
<path d="M32 13.443L33 8.73605L31.5059 4.36365L20.1882 12.6008L24.5412 16.2118L30.6941 17.9769L32.0588 16.4195L31.4706 16.0042L32.4118 15.162L31.6824 14.6082L32.6235 13.9045L32 13.443Z" fill="#763D16"/>
<path d="M3 8.73605L4 13.443L3.36471 13.9045L4.30588 14.6082L3.58824 15.162L4.52941 16.0042L3.94118 16.4195L5.29412 17.9769L11.4471 16.2118L15.8 12.6008L4.48235 4.36365L3 8.73605Z" fill="#763D16"/>
<path d="M30.6941 17.977L24.5412 16.2119L26.4118 18.9692L23.6235 24.2761L27.2941 24.2299H32.7647L30.6941 17.977Z" fill="#F6851B"/>
<path d="M11.4471 16.2119L5.29413 17.977L3.24707 24.2299H8.70589L12.3647 24.2761L9.58825 18.9692L11.4471 16.2119Z" fill="#F6851B"/>
<path d="M19.8 19.2574L20.1882 12.6007L21.9765 7.85913H14.0353L15.8 12.6007L16.2117 19.2574L16.3529 21.3571L16.3647 26.5255H19.6235L19.647 21.3571L19.8 19.2574Z" fill="#F6851B"/>
</svg>
