<svg width="24" height="24" viewBox="0 0 24 24" fill="none" xmlns="http://www.w3.org/2000/svg">
<path d="M22.7187 12.904L21.4618 14.7105C21.2789 14.9733 21.1804 15.2898 21.1804 15.6146L21.1806 17.847C21.1806 18.5138 20.7693 19.1047 20.1618 19.3102L18.1286 19.9984C17.8318 20.0989 17.5732 20.2951 17.39 20.5589L16.1369 22.3644C15.7616 22.9051 15.0951 23.1312 14.4871 22.924L12.457 22.232C12.1599 22.1308 11.8398 22.1308 11.5428 22.232L9.51266 22.924C8.90474 23.1311 8.23812 22.9051 7.86283 22.3644L6.60973 20.5589C6.42664 20.2951 6.16806 20.0989 5.87118 19.9984L3.83799 19.3102C3.23054 19.1047 2.81911 18.5138 2.81916 17.847L2.81933 15.6146C2.81937 15.2898 2.72089 14.9733 2.53801 14.7105L1.28131 12.904C0.906231 12.365 0.906231 11.635 1.28131 11.096L2.53823 9.28954C2.7211 9.02672 2.81954 8.71023 2.81954 8.38541L2.81933 6.15297C2.81929 5.48622 3.23067 4.89534 3.83816 4.68976L5.87136 4.00161C6.16814 3.90111 6.42677 3.70487 6.6099 3.44106L7.863 1.63561C8.23829 1.09489 8.90482 0.868806 9.51283 1.07604L11.543 1.76801C11.84 1.86922 12.1602 1.86922 12.4571 1.76801L14.4873 1.07604C15.0952 0.868851 15.7618 1.09489 16.1371 1.63556L17.3902 3.44106C17.5733 3.70487 17.8319 3.90111 18.1288 4.00161L20.1619 4.68976C20.7694 4.89534 21.1808 5.48622 21.1808 6.15297L21.1806 8.38536C21.1806 8.71019 21.279 9.02672 21.4619 9.2895L22.7188 11.096C23.0937 11.635 23.0937 12.365 22.7187 12.904Z" fill="#F4B53F"/>
<path d="M12 20.0759C16.2716 20.0759 19.7344 16.4602 19.7344 12C19.7344 7.53985 16.2716 3.92417 12 3.92417C7.72842 3.92417 4.26562 7.53985 4.26562 12C4.26562 16.4602 7.72842 20.0759 12 20.0759Z" fill="#F8D377"/>
</svg>
