<svg width="24" height="24" viewBox="0 0 24 24" fill="none" xmlns="http://www.w3.org/2000/svg">
<path fill-rule="evenodd" clip-rule="evenodd" d="M23 12C23 15.608 21.262 18.809 18.578 20.8165C16.7465 22.186 14.464 23 12 23C9.756 23 7.666 22.329 5.928 21.1685C3.8545 19.799 2.2705 17.7365 1.5115 15.3165C1.176 14.266 1 13.155 1 12C1 8.436 2.6995 5.2625 5.334 3.255C5.3835 3.211 5.433 3.1725 5.488 3.1395C7.314 1.792 9.5635 1 12 1C14.244 1 16.334 1.6765 18.0775 2.8315C20.151 4.2065 21.7295 6.269 22.494 8.689C22.824 9.734 23 10.845 23 12Z" fill="#FF9900"/>
<g clip-path="url(#clip0_502_28696)">
<path d="M16.3307 16.6882C11.4731 19 8.45847 17.0658 6.52868 15.891C6.40926 15.817 6.2063 15.9083 6.3824 16.1106C7.02531 16.8901 9.13226 18.769 11.8824 18.769C14.6345 18.769 16.2718 17.2674 16.4766 17.0054C16.68 16.7457 16.5363 16.6024 16.3307 16.6882H16.3307ZM17.695 15.9348C17.5645 15.765 16.9018 15.7333 16.4847 15.7845C16.0669 15.8343 15.4399 16.0896 15.4944 16.2429C15.5224 16.3003 15.5795 16.2746 15.8665 16.2487C16.1542 16.22 16.9604 16.1183 17.1283 16.3379C17.2971 16.559 16.8712 17.6122 16.7934 17.7821C16.7183 17.9519 16.8222 17.9957 16.9633 17.8826C17.1025 17.7695 17.3546 17.4767 17.5237 17.0622C17.6917 16.6455 17.7941 16.0642 17.6949 15.9348H17.695Z" fill="#FF9900"/>
<path fill-rule="evenodd" clip-rule="evenodd" d="M13.0644 11.971C13.0644 12.5776 13.0797 13.0834 12.7731 13.6221C12.5257 14.0601 12.1337 14.3295 11.6957 14.3295C11.0978 14.3295 10.7497 13.874 10.7497 13.2017C10.7497 11.8746 11.9387 11.6338 13.0644 11.6338V11.971ZM14.6345 15.766C14.5316 15.858 14.3827 15.8646 14.2666 15.8032C13.7498 15.374 13.6578 15.1748 13.3731 14.7652C12.5191 15.6368 11.9147 15.8974 10.8066 15.8974C9.49706 15.8974 8.47656 15.0893 8.47656 13.471C8.47656 12.2075 9.16204 11.3469 10.1365 10.9265C10.9818 10.5541 12.1621 10.4884 13.0644 10.3856V10.1841C13.0644 9.81397 13.0928 9.37601 12.876 9.05631C12.6855 8.76943 12.322 8.65117 12.0022 8.65117C11.4088 8.65117 10.8789 8.95554 10.7497 9.58622C10.7233 9.7264 10.6205 9.86437 10.4803 9.87093L8.96927 9.70891C8.84229 9.68038 8.70215 9.57749 8.73718 9.38256C9.08536 7.55188 10.7387 7 12.219 7C12.9767 7 13.9665 7.20149 14.5644 7.77525C15.3221 8.48255 15.2498 9.42637 15.2498 10.4534V12.8798C15.2498 13.609 15.552 13.9287 15.8367 14.3229C15.9374 14.463 15.9593 14.6317 15.8323 14.7368C15.5148 15.0017 14.9498 15.4945 14.6388 15.7704L14.6345 15.766" fill="black"/>
<path d="M16.3307 16.6882C11.4731 19 8.45847 17.0658 6.52868 15.891C6.40926 15.817 6.2063 15.9083 6.3824 16.1106C7.02531 16.8901 9.13226 18.769 11.8824 18.769C14.6345 18.769 16.2718 17.2674 16.4766 17.0054C16.68 16.7457 16.5363 16.6024 16.3307 16.6882H16.3307ZM17.695 15.9348C17.5645 15.765 16.9018 15.7333 16.4847 15.7845C16.0669 15.8343 15.4399 16.0896 15.4944 16.2429C15.5224 16.3003 15.5795 16.2746 15.8665 16.2487C16.1542 16.22 16.9604 16.1183 17.1283 16.3379C17.2971 16.559 16.8712 17.6122 16.7934 17.7821C16.7183 17.9519 16.8222 17.9957 16.9633 17.8826C17.1025 17.7695 17.3546 17.4767 17.5237 17.0622C17.6917 16.6455 17.7941 16.0642 17.6949 15.9348H17.695Z" fill="white"/>
<path fill-rule="evenodd" clip-rule="evenodd" d="M13.0644 11.971C13.0644 12.5776 13.0797 13.0834 12.7731 13.6221C12.5257 14.0601 12.1337 14.3295 11.6957 14.3295C11.0978 14.3295 10.7497 13.874 10.7497 13.2017C10.7497 11.8746 11.9387 11.6338 13.0644 11.6338V11.971ZM14.6345 15.766C14.5316 15.858 14.3827 15.8646 14.2666 15.8032C13.7498 15.374 13.6578 15.1748 13.3731 14.7652C12.5191 15.6368 11.9147 15.8974 10.8066 15.8974C9.49706 15.8974 8.47656 15.0893 8.47656 13.471C8.47656 12.2075 9.16204 11.3469 10.1365 10.9265C10.9818 10.5541 12.1621 10.4884 13.0644 10.3856V10.1841C13.0644 9.81397 13.0928 9.37601 12.876 9.05631C12.6855 8.76943 12.322 8.65117 12.0022 8.65117C11.4088 8.65117 10.8789 8.95554 10.7497 9.58622C10.7233 9.7264 10.6205 9.86437 10.4803 9.87093L8.96927 9.70891C8.84229 9.68038 8.70215 9.57749 8.73718 9.38256C9.08536 7.55188 10.7387 7 12.219 7C12.9767 7 13.9665 7.20149 14.5644 7.77525C15.3221 8.48255 15.2498 9.42637 15.2498 10.4534V12.8798C15.2498 13.609 15.552 13.9287 15.8367 14.3229C15.9374 14.463 15.9593 14.6317 15.8323 14.7368C15.5148 15.0017 14.9498 15.4945 14.6388 15.7704L14.6345 15.766" fill="white"/>
</g>
<defs>
<clipPath id="clip0_502_28696">
<rect width="12" height="12" fill="white" transform="translate(6 7)"/>
</clipPath>
</defs>
</svg>
