<svg width="24" height="24" viewBox="0 0 24 24" fill="none" xmlns="http://www.w3.org/2000/svg">
<path fill-rule="evenodd" clip-rule="evenodd" d="M23 12C23 15.608 21.262 18.809 18.578 20.8165C16.7465 22.186 14.464 23 12 23C9.756 23 7.666 22.329 5.928 21.1685C3.8545 19.799 2.2705 17.7365 1.5115 15.3165C1.176 14.266 1 13.155 1 12C1 8.436 2.6995 5.2625 5.334 3.255C5.3835 3.211 5.433 3.1725 5.488 3.1395C7.314 1.792 9.5635 1 12 1C14.244 1 16.334 1.6765 18.0775 2.8315C20.151 4.2065 21.7295 6.269 22.494 8.689C22.824 9.734 23 10.845 23 12Z" fill="#D6D6D6"/>
<g clip-path="url(#clip0_502_28731)">
<path d="M12.3975 6.54472C13.1859 5.50555 14.282 5.50049 14.282 5.50049C14.282 5.50049 14.445 6.47748 13.6618 7.41863C12.8254 8.42357 11.8749 8.25913 11.8749 8.25913C11.8749 8.25913 11.6964 7.46878 12.3975 6.54472ZM11.9751 8.9435C12.3807 8.9435 13.1335 8.38596 14.1134 8.38596C15.8 8.38596 16.4635 9.58611 16.4635 9.58611C16.4635 9.58611 15.1658 10.2496 15.1658 11.8596C15.1658 13.6757 16.7824 14.3016 16.7824 14.3016C16.7824 14.3016 15.6523 17.4824 14.1259 17.4824C13.4248 17.4824 12.8798 17.0099 12.1411 17.0099C11.3883 17.0099 10.6413 17.5 10.1548 17.5C8.76091 17.5 7 14.4828 7 12.0574C7 9.67117 8.4905 8.41939 9.88853 8.41939C10.7974 8.41939 11.5026 8.9435 11.9751 8.9435Z" fill="#333333"/>
</g>
<defs>
<clipPath id="clip0_502_28731">
<rect width="9.7824" height="12" fill="white" transform="translate(7 5.5)"/>
</clipPath>
</defs>
</svg>
