<svg width="16" height="16" viewBox="0 0 16 16" fill="none" xmlns="http://www.w3.org/2000/svg">
<g clip-path="url(#clip0_1021_101827)">
<path d="M7.99935 0.666504C12.049 0.666504 15.3327 3.95021 15.3327 7.99984C15.3327 12.0495 12.049 15.3332 7.99935 15.3332C3.94972 15.3332 0.666016 12.0515 0.666016 7.99984C0.666016 3.94817 3.94972 0.666504 7.99935 0.666504Z" fill="#ED8E00"/>
<path d="M9.82308 7.71201C10.2371 7.50128 10.4961 7.13014 10.4356 6.51185C10.3541 5.6669 9.62394 5.38357 8.70217 5.30288L8.70199 4.13086H7.98779L7.98759 5.27206C7.79967 5.27206 7.60812 5.27575 7.41743 5.27957L7.41727 4.13101L6.70372 4.13095L6.70358 5.30268C6.54894 5.30583 6.39707 5.30883 6.24878 5.30883V5.30537L5.26367 5.30497L5.26381 6.06679C5.26381 6.06679 5.79123 6.05688 5.78254 6.0665C6.07172 6.0667 6.16614 6.23448 6.1933 6.3793L6.19352 7.71447V9.58996C6.18078 9.68085 6.12721 9.82607 5.92501 9.82634C5.93421 9.83443 5.40547 9.82625 5.40547 9.82625L5.26381 10.6781H6.19307C6.36623 10.6783 6.53636 10.681 6.70327 10.6824L6.7039 11.8676L7.41727 11.8678L7.41707 10.695C7.61334 10.699 7.80279 10.7007 7.98783 10.7005L7.98763 11.8678H8.70181L8.70221 10.6845C9.9027 10.6156 10.7431 10.3135 10.8476 9.18709C10.9319 8.28023 10.5047 7.87543 9.82308 7.71201ZM7.4345 6.11821C7.8373 6.11821 9.1041 5.99006 9.10428 6.83074C9.1041 7.63672 7.8377 7.54256 7.4345 7.54256V6.11821ZM7.43419 9.83211L7.4345 8.26163C7.91845 8.2615 9.43639 8.1225 9.43659 9.04652C9.43679 9.93265 7.91845 9.83176 7.43419 9.83211Z" fill="white"/>
</g>
<defs>
<clipPath id="clip0_1021_101827">
<rect width="14.6667" height="14.6667" fill="white" transform="translate(0.666016 0.666504)"/>
</clipPath>
</defs>
</svg>
