<svg width="24" height="24" viewBox="0 0 24 24" fill="none" xmlns="http://www.w3.org/2000/svg">
<path fill-rule="evenodd" clip-rule="evenodd" d="M23 12C23 15.608 21.262 18.809 18.578 20.8165C16.7465 22.186 14.464 23 12 23C9.756 23 7.666 22.329 5.928 21.1685C3.8545 19.799 2.2705 17.7365 1.5115 15.3165C1.176 14.266 1 13.155 1 12C1 8.436 2.6995 5.2625 5.334 3.255C5.3835 3.211 5.433 3.1725 5.488 3.1395C7.314 1.792 9.5635 1 12 1C14.244 1 16.334 1.6765 18.0775 2.8315C20.151 4.2065 21.7295 6.269 22.494 8.689C22.824 9.734 23 10.845 23 12Z" fill="url(#paint0_linear_502_28745)"/>
<path d="M11.9654 6C13.1572 6 14.2027 6.23218 15.102 6.69654C16.0121 7.1609 16.7109 7.82504 17.1985 8.68897C17.6969 9.5421 18 10.764 18 11.8979C18 13.0318 17.7508 14.4903 17.2524 15.3434C16.7649 16.1858 16.066 16.8391 15.1559 17.3035C14.2567 17.7678 13.2112 18 12.0194 18H8.05394L8 6H11.9654ZM11.9381 16.0724C13.1299 16.0724 14.0508 15.7484 14.7009 15.1004C15.351 14.4525 15.676 13.075 15.676 11.8979C15.676 10.7208 15.297 9.57449 14.647 8.91575C13.9969 8.24621 13.076 7.91144 11.8842 7.91144H10.2752L10.3292 16.0724H11.9381Z" fill="white"/>
<defs>
<linearGradient id="paint0_linear_502_28745" x1="1" y1="12" x2="23" y2="12" gradientUnits="userSpaceOnUse">
<stop stop-color="#FC7648"/>
<stop offset="1" stop-color="#FC4981"/>
</linearGradient>
</defs>
</svg>
