<svg width="24" height="24" viewBox="0 0 24 24" fill="none" xmlns="http://www.w3.org/2000/svg">
<mask id="mask0_502_28714" style="mask-type:alpha" maskUnits="userSpaceOnUse" x="1" y="1" width="22" height="22">
<path d="M1 1H23V22.8668H1V1Z" fill="white"/>
</mask>
<g mask="url(#mask0_502_28714)">
<path fill-rule="evenodd" clip-rule="evenodd" d="M22.9998 11.9997C22.9998 5.92418 18.0747 0.999023 11.9992 0.999023C5.92369 0.999023 0.998535 5.92418 0.998535 11.9997C0.998535 17.4904 5.02131 22.0414 10.2803 22.8667V15.1795H7.4872V11.9997H10.2803V9.57609C10.2803 6.81905 11.9226 5.29615 14.4354 5.29615C15.639 5.29615 16.8979 5.51101 16.8979 5.51101V8.2182H15.5107C14.1442 8.2182 13.718 9.06617 13.718 9.93612V11.9997H16.769L16.2813 15.1795H13.718V22.8667C18.977 22.0414 22.9998 17.4904 22.9998 11.9997Z" fill="#1877F2"/>
</g>
<path fill-rule="evenodd" clip-rule="evenodd" d="M16.2814 15.1798L16.7691 11.9999H13.7181V9.93636C13.7181 9.06641 14.1443 8.21843 15.5109 8.21843H16.898V5.51124C16.898 5.51124 15.6391 5.29639 14.4355 5.29639C11.9228 5.29639 10.2804 6.81929 10.2804 9.57632V11.9999H7.4873V15.1798H10.2804V22.8669C10.8405 22.9548 11.4145 23.0005 11.9993 23.0005C12.584 23.0005 13.1581 22.9548 13.7181 22.8669V15.1798H16.2814Z" fill="white"/>
</svg>
