<svg width="24" height="24" viewBox="0 0 24 24" fill="none" xmlns="http://www.w3.org/2000/svg">
<path d="M12 1C18.0744 1 23 5.92556 23 12C23 18.0744 18.0744 23 12 23C5.92556 23 1 18.0775 1 12C1 5.9225 5.92556 1 12 1Z" fill="#26A17B"/>
<path d="M13.549 10.7735V9.13575H17.292V6.64246H7.10171V9.13575H10.8448V10.7735C7.80449 10.9141 5.51587 11.516 5.51587 12.2371C5.51587 12.9582 7.80449 13.5601 10.8448 13.7007V18.9409H13.552V13.7007C16.5893 13.5601 18.8718 12.9582 18.8718 12.2371C18.8687 11.516 16.5862 10.9141 13.549 10.7735ZM13.552 13.2576C13.4756 13.2607 13.0845 13.2851 12.2106 13.2851C11.5109 13.2851 11.022 13.2668 10.8478 13.2576V13.2607C8.16199 13.1415 6.15448 12.674 6.15448 12.1149C6.15448 11.5557 8.15894 11.0882 10.8478 10.9691V12.7901C11.0251 12.8024 11.5262 12.8329 12.2228 12.8329C13.057 12.8329 13.4756 12.7993 13.5551 12.7901V10.9629C16.2379 11.0821 18.2393 11.5496 18.2393 12.1088C18.2331 12.6679 16.2318 13.1354 13.552 13.2576Z" fill="white"/>
</svg>
