<svg width="16" height="16" viewBox="0 0 16 16" fill="none" xmlns="http://www.w3.org/2000/svg">
<path d="M12.2137 15C12.1316 15 12.0491 14.9804 11.9737 14.9406L12.7224 14.3958C12.7554 14.5896 12.676 14.7855 12.517 14.9013C12.4273 14.9669 12.3205 15 12.2137 15ZM11.2242 10.0899L11.9033 14.0558L8.3493 12.1842L7.99986 12.0002L7.6504 12.1842L4.09692 14.0553L4.77601 10.0894L4.84247 9.7012L4.56066 9.42611L1.68351 6.61755L5.65854 6.0394L6.04901 5.9826L6.22338 5.62863L7.99984 2.02245L9.77629 5.62863L9.95066 5.9826L10.3411 6.0394L14.3163 6.61757L11.4394 9.42671L11.1577 9.7018L11.2242 10.0899ZM7.78984 1.59616L7.78985 1.59618L7.78984 1.59616Z" stroke="#A4A5AF" stroke-width="1.5"/>
</svg>
