<svg width="24" height="24" viewBox="0 0 24 24" fill="none" xmlns="http://www.w3.org/2000/svg">
<path d="M22.7662 10.2375L17.9454 14.945L19.0838 21.5937C19.1334 21.8844 19.0142 22.1783 18.7758 22.3519C18.6412 22.4504 18.4809 22.5 18.3207 22.5C18.1977 22.5 18.0739 22.4705 17.9609 22.4108L12 19.2718L6.03991 22.4101C5.77987 22.5481 5.46333 22.5256 5.22496 22.3511C4.98659 22.1775 4.8674 21.8837 4.91693 21.5929L6.05539 14.9442L1.23377 10.2375C1.02325 10.0313 0.946635 9.72273 1.03796 9.44286C1.12928 9.16299 1.37153 8.95754 1.6633 8.9149L8.32612 7.94581L11.3058 1.89713C11.5666 1.36762 12.4334 1.36762 12.6942 1.89713L15.6739 7.94581L22.3367 8.9149C22.6285 8.95754 22.8707 9.16221 22.962 9.44286C23.0534 9.72351 22.9767 10.0305 22.7662 10.2375Z" fill="url(#paint0_linear_475_10190)"/>
<defs>
<linearGradient id="paint0_linear_475_10190" x1="0.947086" y1="1.60231" x2="35.8484" y2="26.2971" gradientUnits="userSpaceOnUse">
<stop stop-color="#F99500"/>
<stop offset="0.853788" stop-color="#BC4400"/>
</linearGradient>
</defs>
</svg>
