<svg width="24" height="24" viewBox="0 0 24 24" fill="none" xmlns="http://www.w3.org/2000/svg">
<path fill-rule="evenodd" clip-rule="evenodd" d="M1.24176 9.6906C2.31405 4.67978 6.88721 1 12.0132 1C15.0446 1 17.9864 2.27555 20.0572 4.48583C23.5909 8.25753 23.9925 14.1695 20.9889 18.3784C19.5524 20.3916 17.4423 21.8914 15.0625 22.5747C12.5958 23.2833 9.90146 23.1022 7.55455 22.0632C5.29828 21.0646 3.41244 19.3025 2.26213 17.1222C1.06692 14.8567 0.706033 12.1943 1.24176 9.6906ZM12.6073 6.74556L15.7469 9.8084C16.5306 10.5729 15.3152 11.7585 14.5314 10.9937L12.9545 9.4552V16.5689C12.9545 17.0764 12.5199 17.5 11.9997 17.5C11.4795 17.5 11.045 17.0764 11.045 16.5689V9.41971L9.46113 10.9281C8.66993 11.6823 7.46566 10.4857 8.26058 9.72848L11.3996 6.73858C11.7359 6.41779 12.2744 6.42087 12.6073 6.74556Z" fill="#56BD86"/>
</svg>
