<svg width="114" height="28" viewBox="0 0 114 28" fill="none" xmlns="http://www.w3.org/2000/svg">
<g clip-path="url(#clip0_45_970)">
<path d="M42.9324 7.58234H46.8213L49.783 19.377L52.7962 7.58234H56.6078L59.5953 19.377L62.557 7.58234H66.3944L62.351 23.4655H57.4835L54.6248 12.3151L51.7918 23.4655H46.9501L42.9324 7.58234Z" fill="#ED8E00"/>
<path d="M70.2788 22.97C69.3002 22.4744 68.5533 21.8054 68.0125 20.9133C67.4716 20.0461 67.1884 19.0301 67.1884 17.8903C67.1884 16.7505 67.4716 15.7346 68.0382 14.8178C68.6048 13.9009 69.4032 13.1824 70.3819 12.662C71.3605 12.1416 72.4422 11.8939 73.6269 11.8939C74.7858 11.8939 75.8417 12.1416 76.7946 12.6372C77.7475 13.1328 78.4944 13.8266 79.0352 14.7186C79.5761 15.6107 79.8593 16.6266 79.8593 17.7416C79.8593 18.0638 79.8336 18.3859 79.7821 18.6832H70.3561C70.4849 19.377 70.8712 19.947 71.4635 20.4178C72.0559 20.8885 72.8027 21.1116 73.6784 21.1116C74.2192 21.1116 74.7343 21.0124 75.1721 20.8142C75.6099 20.616 75.9447 20.3434 76.1765 20.0213H79.4988C79.37 20.6655 79.0352 21.285 78.5201 21.8301C78.0051 22.3753 77.3097 22.8213 76.4856 23.1682C75.6357 23.5151 74.7085 23.6886 73.6784 23.6886C72.3907 23.6886 71.2575 23.4408 70.2788 22.97ZM75.5327 15.0655C74.9918 14.6691 74.3222 14.4956 73.5496 14.4956C72.8027 14.4956 72.1589 14.6939 71.5665 15.0903C71 15.4868 70.6136 16.0071 70.4334 16.6514H76.6143C76.4598 15.9824 76.0735 15.4372 75.5327 15.0655Z" fill="#ED8E00"/>
<path d="M86.4995 22.8956C85.3405 22.3009 84.4392 21.4337 83.8211 20.3434C83.203 19.2531 82.8682 17.9646 82.8682 16.5027V7.58234H86.654V16.354C86.654 17.6177 86.9888 18.5841 87.6584 19.3027C88.328 19.9965 89.2809 20.3682 90.5171 20.3682C91.7533 20.3682 92.6805 20.0213 93.3501 19.3027C94.0197 18.6089 94.3545 17.6177 94.3545 16.354V7.58234H98.1403V16.5027C98.1403 17.9646 97.8313 19.2531 97.1874 20.3434C96.5693 21.4337 95.6679 22.3009 94.509 22.8956C93.3501 23.4903 92.0108 23.8124 90.4914 23.8124C88.9976 23.8124 87.6584 23.5151 86.4995 22.8956Z" fill="#ED8E00"/>
<path d="M104.394 12.1169V13.4054C104.884 12.9098 105.45 12.5381 106.068 12.2903C106.686 12.0178 107.382 11.8939 108.129 11.8939C109.236 11.8939 110.24 12.1416 111.142 12.662C112.043 13.1824 112.739 13.8762 113.254 14.7682C113.769 15.6602 114.026 16.6762 114.026 17.7912C114.026 18.9063 113.769 19.9222 113.254 20.8142C112.739 21.7063 112.043 22.4001 111.142 22.9204C110.24 23.4408 109.236 23.6886 108.129 23.6886C107.459 23.6886 106.841 23.5647 106.249 23.3416C105.656 23.1186 105.141 22.7965 104.678 22.4001V28.0001H101.407V12.1169H104.394ZM109.803 19.9222C110.395 19.3523 110.678 18.6337 110.678 17.7912C110.678 16.9487 110.395 16.2301 109.803 15.6602C109.21 15.0903 108.489 14.793 107.639 14.793C106.764 14.793 106.042 15.0903 105.476 15.6602C104.909 16.2301 104.626 16.9487 104.626 17.7912C104.626 18.6337 104.909 19.3523 105.476 19.9222C106.042 20.4921 106.764 20.7894 107.639 20.7894C108.489 20.7894 109.236 20.5169 109.803 19.9222Z" fill="#ED8E00"/>
<path d="M0.0515436 7.58229C0.0515436 7.58229 -0.102981 19.377 5.69168 24.9522C9.96686 29.0655 15.813 28.7186 18.9293 25.7203C22.0455 22.7221 22.4061 17.0973 18.1309 12.9841C12.3105 7.43362 0.0515436 7.58229 0.0515436 7.58229Z" fill="url(#paint0_linear_45_970)"/>
<path d="M18.9293 0.0743408C18.9293 0.0743408 10.1472 8.30089 10.1472 16.2053C10.1472 22.0283 14.5253 25.7451 18.9293 25.7451C23.3332 25.7451 27.7114 22.0035 27.7114 16.2053C27.7114 8.30089 18.9293 0.0743408 18.9293 0.0743408Z" fill="#ED8E00"/>
<path d="M37.7813 7.58229C37.7813 7.58229 25.5223 7.43362 19.7277 13.0088C15.4525 17.1221 15.813 22.7469 18.9293 25.7451C22.0455 28.7433 27.8917 29.0903 32.1669 24.977C37.9358 19.377 37.7813 7.58229 37.7813 7.58229Z" fill="#ED8E00"/>
<path d="M27.7114 16.1806C27.7114 22.0036 23.3332 25.7204 18.9293 25.7204C15.813 22.7222 15.4525 17.0974 19.7277 12.9841C21.4017 11.3735 23.6165 10.2337 25.9344 9.44073C26.9646 11.5965 27.7114 13.9009 27.7114 16.1806Z" fill="#567CD1"/>
<path d="M27.7114 16.1806C27.7114 22.0036 23.3332 25.7204 18.9293 25.7204C15.813 22.7222 15.4525 17.0974 19.7277 12.9841C21.4017 11.3735 23.6165 10.2337 25.9344 9.44073C26.9646 11.5965 27.7114 13.9009 27.7114 16.1806Z" fill="url(#paint1_linear_45_970)"/>
</g>
<defs>
<linearGradient id="paint0_linear_45_970" x1="2.93506e-05" y1="7.68141" x2="20.5607" y2="28.7939" gradientUnits="userSpaceOnUse">
<stop stop-color="#F99500"/>
<stop offset="0.853788" stop-color="#BC4400"/>
</linearGradient>
<linearGradient id="paint1_linear_45_970" x1="27.8144" y1="4.5841" x2="28.2679" y2="25.5681" gradientUnits="userSpaceOnUse">
<stop stop-color="#F99500"/>
<stop offset="0.853788" stop-color="#BC4400"/>
</linearGradient>
<clipPath id="clip0_45_970">
<rect width="114" height="28" fill="white"/>
</clipPath>
</defs>
</svg>
