<svg width="24" height="24" viewBox="0 0 24 24" fill="none" xmlns="http://www.w3.org/2000/svg">
<path d="M12 24C18.6274 24 24 18.6274 24 12C24 5.37258 18.6274 0 12 0C5.37258 0 0 5.37258 0 12C0 18.6274 5.37258 24 12 24Z" fill="#F2EDD6"/>
<path d="M7.19166 12C7.19166 6.62533 10.7259 2.07612 15.5965 0.548257C14.4613 0.19214 13.2528 0 12 0C5.37254 0 0 5.37254 0 12C0 18.6275 5.37254 24 12 24C13.2528 24 14.4616 23.8078 15.5969 23.4516C10.7263 21.9238 7.19166 17.3747 7.19166 12Z" fill="#D1CCB0"/>
<path d="M23.9977 12.2006H23.9982C23.9701 13.9374 23.5726 15.5844 22.8814 17.0667L22.8805 17.0662C21.9542 16.691 21.3008 15.7836 21.3008 14.7226C21.3008 13.3266 22.4326 12.1948 23.8286 12.1948C23.8853 12.1948 23.9415 12.1972 23.9977 12.2006Z" fill="#D4CEB4"/>
<path d="M11.9996 22.1187C13.0452 22.1187 13.9239 22.8346 14.1711 23.8035C13.4669 23.9325 12.7412 23.9998 11.9996 23.9998C11.258 23.9998 10.5324 23.9325 9.82812 23.8035C10.0753 22.8346 10.9541 22.1187 11.9996 22.1187Z" fill="#ACA891"/>
<path d="M14.8964 16.7656C15.7045 16.7656 16.3598 17.421 16.3598 18.229C16.3598 19.0375 15.7045 19.6923 14.8964 19.6923C14.0879 19.6923 13.4326 19.0375 13.4326 18.229C13.4326 17.421 14.0879 16.7656 14.8964 16.7656Z" fill="#D4CEB4"/>
<path d="M17.5495 15.4176C18.121 15.4176 18.5844 14.9543 18.5844 14.3828C18.5844 13.8112 18.121 13.3479 17.5495 13.3479C16.978 13.3479 16.5146 13.8112 16.5146 14.3828C16.5146 14.9543 16.978 15.4176 17.5495 15.4176Z" fill="#D4CEB4"/>
<path d="M15.3208 11.6287C16.8587 11.6287 18.1055 10.3819 18.1055 8.84399C18.1055 7.30606 16.8587 6.05933 15.3208 6.05933C13.7829 6.05933 12.5361 7.30606 12.5361 8.84399C12.5361 10.3819 13.7829 11.6287 15.3208 11.6287Z" fill="#D4CEB4"/>
<path d="M7.19181 15.9635C8.07709 15.9635 8.79475 15.2458 8.79475 14.3605C8.79475 13.4752 8.07709 12.7576 7.19181 12.7576C6.30653 12.7576 5.58887 13.4752 5.58887 14.3605C5.58887 15.2458 6.30653 15.9635 7.19181 15.9635Z" fill="#D4CEB4"/>
<path d="M7.19181 15.9635C7.41404 15.9635 7.62577 15.9181 7.8182 15.8363C7.48913 14.8604 7.28216 13.8283 7.21546 12.7581C7.20756 12.7581 7.19975 12.7576 7.19181 12.7576C6.30624 12.7576 5.58887 13.4754 5.58887 14.3605C5.58887 15.2456 6.30624 15.9635 7.19181 15.9635Z" fill="#ACA891"/>
<path d="M4.21643 9.2854C4.75688 9.2854 5.19506 9.72358 5.19506 10.2635C5.19506 10.804 4.75688 11.2422 4.21643 11.2422C3.67598 11.2422 3.23828 10.804 3.23828 10.2635C3.23828 9.72358 3.67598 9.2854 4.21643 9.2854Z" fill="#ACA891"/>
<path d="M8.40084 0.549557C8.50942 0.950413 8.56807 1.37211 8.56807 1.80738C8.56807 4.45536 6.42128 6.60215 3.77282 6.60215C2.97789 6.60215 2.22804 6.40826 1.56787 6.06606H1.56738C3.05302 3.45928 5.48773 1.46372 8.40084 0.549072V0.549557Z" fill="#ACA891"/>
</svg>
 