<svg width="16" height="16" viewBox="0 0 16 16" fill="none" xmlns="http://www.w3.org/2000/svg">
<mask id="path-1-inside-1_475_27897" fill="white">
<path d="M15.1773 6.82501L11.9634 9.96331L12.7224 14.3958C12.7554 14.5896 12.676 14.7855 12.517 14.9013C12.4273 14.9669 12.3205 15 12.2137 15C12.1316 15 12.0491 14.9804 11.9737 14.9406L7.99984 12.8478L4.02645 14.94C3.85308 15.032 3.64206 15.0171 3.48314 14.9008C3.32423 14.785 3.24477 14.5891 3.27779 14.3953L4.03677 9.9628L0.822348 6.82501C0.682007 6.68753 0.630927 6.48182 0.69181 6.29524C0.752693 6.10866 0.914188 5.97169 1.1087 5.94327L5.55059 5.29721L7.53702 1.26476C7.7109 0.911748 8.28877 0.911748 8.46265 1.26476L10.4491 5.29721L14.891 5.94327C15.0855 5.97169 15.247 6.10814 15.3079 6.29524C15.3687 6.48234 15.3177 6.68701 15.1773 6.82501V6.82501Z"/>
</mask>
<path d="M15.1773 6.82501L11.9634 9.96331L12.7224 14.3958C12.7554 14.5896 12.676 14.7855 12.517 14.9013C12.4273 14.9669 12.3205 15 12.2137 15C12.1316 15 12.0491 14.9804 11.9737 14.9406L7.99984 12.8478L4.02645 14.94C3.85308 15.032 3.64206 15.0171 3.48314 14.9008C3.32423 14.785 3.24477 14.5891 3.27779 14.3953L4.03677 9.9628L0.822348 6.82501C0.682007 6.68753 0.630927 6.48182 0.69181 6.29524C0.752693 6.10866 0.914188 5.97169 1.1087 5.94327L5.55059 5.29721L7.53702 1.26476C7.7109 0.911748 8.28877 0.911748 8.46265 1.26476L10.4491 5.29721L14.891 5.94327C15.0855 5.97169 15.247 6.10814 15.3079 6.29524C15.3687 6.48234 15.3177 6.68701 15.1773 6.82501V6.82501Z" fill="#828392"/>
<path d="M11.9634 9.96331L0.785153 -1.48423L-5.22473 4.38429L-3.80705 12.6637L11.9634 9.96331ZM12.7224 14.3958L28.4951 11.7086L28.4929 11.6954L12.7224 14.3958ZM12.517 14.9013L3.09569 1.96923L3.08465 1.97727L3.07362 1.98533L12.517 14.9013ZM11.9737 14.9406L19.4477 0.793501L19.4384 0.788553L19.429 0.783617L11.9737 14.9406ZM7.99984 12.8478L15.4551 -1.3091L8.00027 -5.23492L0.545262 -1.30946L7.99984 12.8478ZM4.02645 14.94L-3.42813 0.78274L-3.45094 0.794751L-3.47371 0.806836L4.02645 14.94ZM3.48314 14.9008L12.9319 1.98873L12.9182 1.97871L12.9045 1.96871L3.48314 14.9008ZM3.27779 14.3953L-12.4927 11.6949L-12.4949 11.708L3.27779 14.3953ZM4.03677 9.9628L19.8072 12.6632L21.2252 4.38214L15.2132 -1.48657L4.03677 9.9628ZM0.822348 6.82501L-10.3743 18.2545L-10.3642 18.2645L-10.3541 18.2744L0.822348 6.82501ZM1.1087 5.94327L-1.19422 -9.89014L-1.20497 -9.88857L1.1087 5.94327ZM5.55059 5.29721L7.85351 21.1306L16.1837 19.919L19.9036 12.3677L5.55059 5.29721ZM7.53702 1.26476L21.89 8.33523L21.8903 8.33463L7.53702 1.26476ZM8.46265 1.26476L-5.89064 8.33463L-5.89034 8.33523L8.46265 1.26476ZM10.4491 5.29721L-3.90391 12.3677L-0.184026 19.919L8.14616 21.1306L10.4491 5.29721ZM14.891 5.94327L17.2046 -9.88857L17.1939 -9.89013L14.891 5.94327ZM3.99905 -4.62253L0.785153 -1.48423L23.1417 21.4109L26.3556 18.2726L3.99905 -4.62253ZM-3.80705 12.6637L-3.04808 17.0962L28.4929 11.6954L27.7339 7.26294L-3.80705 12.6637ZM-3.05032 17.083C-4.03584 11.2986 -1.66633 5.43849 3.09569 1.96923L21.9384 27.8333C27.0183 24.1325 29.5467 17.8807 28.4951 11.7086L-3.05032 17.083ZM3.07362 1.98533C5.81052 -0.0157322 9.03305 -1 12.2137 -1V31C15.6079 31 19.044 29.9496 21.9605 27.8172L3.07362 1.98533ZM12.2137 -1C14.6805 -1 17.1706 -0.409538 19.4477 0.793501L4.49975 29.0876C6.92756 30.3703 9.58275 31 12.2137 31V-1ZM19.429 0.783617L15.4551 -1.3091L0.544578 27.0048L4.51848 29.0975L19.429 0.783617ZM0.545262 -1.30946L-3.42813 0.78274L11.481 29.0974L15.4544 27.0051L0.545262 -1.30946ZM-3.47371 0.806836C1.76741 -1.9745 8.13988 -1.51799 12.9319 1.98873L-5.96563 27.8128C-0.855764 31.5521 5.93876 32.0386 11.5266 29.0733L-3.47371 0.806836ZM12.9045 1.96871C17.6666 5.43801 20.036 11.2981 19.0505 17.0825L-12.4949 11.708C-13.5465 17.8801 -11.0181 24.132 -5.93822 27.8328L12.9045 1.96871ZM19.0483 17.0957L19.8072 12.6632L-11.7337 7.26242L-12.4927 11.6949L19.0483 17.0957ZM15.2132 -1.48657L11.9988 -4.62435L-10.3541 18.2744L-7.13964 21.4122L15.2132 -1.48657ZM12.019 -4.60452C16.189 -0.519512 17.7439 5.61546 15.9025 11.2586L-14.5189 1.33189C-16.482 7.34819 -14.825 13.8946 -10.3743 18.2545L12.019 -4.60452ZM15.9025 11.2586C14.0898 16.8137 9.28048 20.919 3.42237 21.7751L-1.20497 -9.88857C-7.45211 -8.97561 -12.5844 -4.59642 -14.5189 1.33189L15.9025 11.2586ZM3.41163 21.7767L7.85351 21.1306L3.24766 -10.5362L-1.19422 -9.89013L3.41163 21.7767ZM19.9036 12.3677L21.89 8.33523L-6.81597 -5.80572L-8.80241 -1.77326L19.9036 12.3677ZM21.8903 8.33463C18.6553 14.9023 12.3405 17 7.99984 17C3.65915 17 -2.65567 14.9023 -5.89064 8.33463L22.8159 -5.80512C19.4071 -12.7258 12.7164 -15 7.99984 -15C3.28327 -15 -3.40742 -12.7258 -6.81627 -5.80512L21.8903 8.33463ZM-5.89034 8.33523L-3.90391 12.3677L24.8021 -1.77326L22.8156 -5.80572L-5.89034 8.33523ZM8.14616 21.1306L12.588 21.7767L17.1939 -9.89013L12.752 -10.5362L8.14616 21.1306ZM12.5773 21.7751C6.73754 20.9217 1.9098 16.829 0.0931317 11.2462L30.5226 1.34429C28.5842 -4.61271 23.4334 -8.97829 17.2046 -9.88857L12.5773 21.7751ZM0.0931317 11.2462C-1.74533 5.59643 -0.176362 -0.516934 3.95921 -4.58349L26.3954 18.2335C30.8117 13.891 32.4828 7.36825 30.5226 1.34429L0.0931317 11.2462Z" fill="#828392" mask="url(#path-1-inside-1_475_27897)"/>
</svg>
