<svg width="24" height="24" viewBox="0 0 24 24" fill="none" xmlns="http://www.w3.org/2000/svg">
<path fill-rule="evenodd" clip-rule="evenodd" d="M21.4618 14.7105L22.7187 12.904C23.0937 12.365 23.0937 11.635 22.7188 11.096L21.4619 9.2895C21.279 9.02672 21.1806 8.71019 21.1806 8.38536L21.1808 6.15297C21.1808 5.48622 20.7694 4.89534 20.1619 4.68976L18.1288 4.00161C17.8319 3.90111 17.5733 3.70487 17.3902 3.44106L16.1371 1.63556C15.7618 1.09489 15.0952 0.868851 14.4873 1.07604L12.4571 1.76801C12.1602 1.86922 11.84 1.86922 11.543 1.76801L9.51283 1.07604C8.90482 0.868806 8.23829 1.09489 7.863 1.63561L6.6099 3.44106C6.42677 3.70487 6.16814 3.90111 5.87136 4.00161L3.83816 4.68976C3.23067 4.89534 2.81929 5.48622 2.81933 6.15297L2.81954 8.38541C2.81954 8.71023 2.7211 9.02672 2.53823 9.28954L1.28131 11.096C0.906231 11.635 0.906231 12.365 1.28131 12.904L2.53801 14.7105C2.72089 14.9733 2.81937 15.2898 2.81933 15.6146L2.81916 17.847C2.81911 18.5138 3.23054 19.1047 3.83799 19.3102L5.87118 19.9984C6.16806 20.0989 6.42664 20.2951 6.60973 20.5589L7.86283 22.3644C8.23812 22.9051 8.90474 23.1311 9.51266 22.924L11.5428 22.232C11.8398 22.1308 12.1599 22.1308 12.457 22.232L14.4871 22.924C15.0951 23.1312 15.7616 22.9051 16.1369 22.3644L17.39 20.5589C17.5732 20.2951 17.8318 20.0989 18.1286 19.9984L20.1618 19.3102C20.7693 19.1047 21.1806 18.5138 21.1806 17.847L21.1804 15.6146C21.1804 15.2898 21.2789 14.9733 21.4618 14.7105ZM18.9998 12C18.9998 15.866 15.8657 19 11.9998 19C8.13376 19 4.99976 15.866 4.99976 12C4.99976 8.13401 8.13376 5 11.9998 5C15.8657 5 18.9998 8.13401 18.9998 12Z" fill="#ED8E00"/>
</svg>
