<svg width="37" height="28" viewBox="0 0 37 28" fill="none" xmlns="http://www.w3.org/2000/svg">
<path d="M0.00038553 7.51979C0.00038553 7.51979 -0.149996 19.3331 5.48932 24.9171C9.64989 29.0369 15.3393 28.6894 18.372 25.6865C21.4047 22.6835 21.7556 17.0499 17.5951 12.9301C11.9307 7.37089 0.00038553 7.51979 0.00038553 7.51979Z" fill="url(#paint0_linear_58_1497)"/>
<path d="M18.372 0C18.372 0 9.82532 8.23953 9.82532 16.1564C9.82532 21.9886 14.0861 25.7113 18.372 25.7113C22.6579 25.7113 26.9187 21.9638 26.9187 16.1564C26.9187 8.23953 18.372 0 18.372 0Z" fill="url(#paint1_linear_58_1497)"/>
<path d="M36.7186 7.51979C36.7186 7.51979 24.7883 7.37088 19.149 12.9549C14.9884 17.0747 15.3393 22.7083 18.372 25.7113C21.4047 28.7142 27.0942 29.0617 31.2547 24.9419C36.869 19.3331 36.7186 7.51979 36.7186 7.51979Z" fill="url(#paint2_linear_58_1497)"/>
<path d="M26.9187 16.1316C26.9187 21.9638 22.6579 25.6865 18.372 25.6865C15.3393 22.6835 14.9884 17.0499 19.149 12.9301C20.7781 11.317 22.9336 10.1753 25.1893 9.38116C26.1919 11.5403 26.9187 13.8484 26.9187 16.1316Z" fill="#567CD1"/>
<path d="M26.9187 16.1316C26.9187 21.9638 22.6579 25.6865 18.372 25.6865C15.3393 22.6835 14.9884 17.0499 19.149 12.9301C20.7781 11.317 22.9336 10.1753 25.1893 9.38116C26.1919 11.5403 26.9187 13.8484 26.9187 16.1316Z" fill="url(#paint3_linear_58_1497)"/>
<defs>
<linearGradient id="paint0_linear_58_1497" x1="-0.0497477" y1="7.61907" x2="20.5505" y2="28.1727" gradientUnits="userSpaceOnUse">
<stop stop-color="#F99500"/>
<stop offset="0.853788" stop-color="#BC4400"/>
</linearGradient>
<linearGradient id="paint1_linear_58_1497" x1="18.372" y1="0" x2="18.372" y2="25.7113" gradientUnits="userSpaceOnUse">
<stop stop-color="#FFC700"/>
<stop offset="0.765241" stop-color="#ED8E00"/>
</linearGradient>
<linearGradient id="paint2_linear_58_1497" x1="35.9166" y1="7.61907" x2="18.5485" y2="25.535" gradientUnits="userSpaceOnUse">
<stop stop-color="#FFC700"/>
<stop offset="0.765241" stop-color="#ED8E00"/>
</linearGradient>
<linearGradient id="paint3_linear_58_1497" x1="27.019" y1="4.51686" x2="27.4864" y2="25.5334" gradientUnits="userSpaceOnUse">
<stop stop-color="#F99500"/>
<stop offset="0.853788" stop-color="#BC4400"/>
</linearGradient>
</defs>
</svg>
